<svg xmlns="http://www.w3.org/2000/svg" class="css-ze2te4 css-qd6ojx" viewBox="0 0 56.4516129032258 53.74538284071664"><g transform="translate(-4.032522986235681, -5.38512569275414) scale(7.620020177351728)" stroke="#000000" fill="#000000"><g xmlns="http://www.w3.org/2000/svg" transform="translate(0,-288.53332)"><path style="" d="M 4.5671808,289.26981 4.29402,289.62445 a 0.07657521,0.07657521 0 0 1 -0.1213311,0 l -0.2731021,-0.35457 a 0.07657521,0.07657521 0 0 0 -0.1074208,-0.0139 2.1986804,2.1986804 0 0 0 0.3152838,3.68526 2.3309713,2.3309713 0 0 1 1.4215319,-1.85539 2.1986804,2.1986804 0 0 0 -0.8544848,-1.82991 0.07657521,0.07657521 0 0 0 -0.1073161,0.0139 z" fill="{{COLOR}}" stroke="none"/><path style="" d="m 0.7863149,291.53169 0.252872,0.36938 a 0.07657521,0.07657521 0 0 1 -0.03749,0.11539 l -0.42160298,0.15017 a 0.07657521,0.07657521 0 0 0 -0.04643,0.0979 2.1986804,2.1986804 0 0 0 3.60232098,0.83895 2.3309713,2.3309713 0 0 1 -1.3253,-1.9253 2.1986804,2.1986804 0 0 0 -2.00439898,0.24719 0.07657521,0.07657521 0 0 0 -0.01997,0.10635 z" fill="{{COLOR}}" stroke="none"/><path style="" d="m 1.7691399,295.82647 0.429444,-0.12635 a 0.07657521,0.07657521 0 0 1 0.09816,0.0713 l 0.01254,0.44737 a 0.07657521,0.07657521 0 0 0 0.07872,0.0744 2.1986804,2.1986804 0 0 0 1.9110731,-3.16676 2.3309713,2.3309713 0 0 1 -2.2406121,0.66549 2.1986804,2.1986804 0 0 0 -0.384302,1.98268 0.07657521,0.07657521 0 0 0 0.09498,0.0519 z" fill="{{COLOR}}" stroke="none"/><path style="" d="m 6.1574243,296.2189 0.012541,-0.44747 a 0.07657521,0.07657521 0 0 1 0.098159,-0.0713 l 0.4293516,0.12632 a 0.07657521,0.07657521 0 0 0 0.095085,-0.0519 2.1986804,2.1986804 0 0 0 -2.4212132,-2.79613 2.3309713,2.3309713 0 0 1 -0.05947,2.3366 2.1986804,2.1986804 0 0 0 1.766887,0.97817 0.07657521,0.07657521 0 0 0 0.078665,-0.0743 z" fill="{{COLOR}}" stroke="none"/><path style="" d="m 7.8867092,292.16667 -0.4216945,-0.15021 a 0.07657521,0.07657521 0 0 1 -0.037493,-0.11539 l 0.2528162,-0.3693 a 0.07657521,0.07657521 0 0 0 -0.01996,-0.10647 2.1986804,2.1986804 0 0 0 -3.4074643,1.43867 2.3309713,2.3309713 0 0 1 2.2038548,0.77861 2.1986804,2.1986804 0 0 0 1.4762978,-1.37814 0.07657521,0.07657521 0 0 0 -0.046359,-0.0978 z" fill="{{COLOR}}" stroke="none"/></g></g></svg>